<svg width="32" height="32" viewBox="0 0 32 32" fill="none" xmlns="http://www.w3.org/2000/svg">
<g clip-path="url(#clip0_3_6)">
<path d="M27.264 27.2688H22.5248V19.8448C22.5248 18.0736 22.488 15.7952 20.0544 15.7952C17.584 15.7952 17.2064 17.7216 17.2064 19.7136V27.2688H12.4688V12H17.0192V14.08H17.0816C17.7168 12.88 19.264 11.616 21.5744 11.616C26.376 11.616 27.264 14.7744 27.264 18.888V27.2688ZM7.1152 9.9104C5.5888 9.9104 4.3632 8.6768 4.3632 7.1584C4.3632 5.64 5.5904 4.4064 7.1152 4.4064C7.84508 4.4064 8.54506 4.69634 9.06116 5.21244C9.57726 5.72854 9.8672 6.42852 9.8672 7.1584C9.8672 7.88828 9.57726 8.58826 9.06116 9.10436C8.54506 9.62046 7.84508 9.9104 7.1152 9.9104ZM9.4896 27.2704H4.7376V12H9.4896V27.2688V27.2704ZM29.6336 0H2.3616C1.056 0 0 1.032 0 2.304V29.696C0 30.968 1.056 32 2.3616 32H29.6288C30.9328 32 32 30.9696 32 29.696V2.304C32 1.0336 30.9328 0 29.6288 0H29.6336Z" fill="white"/>
</g>
<defs>
<clipPath id="clip0_3_6">
<rect width="32" height="32" fill="white"/>
</clipPath>
</defs>
</svg>
